<svg xmlns="http://www.w3.org/2000/svg" width="150" height="313.553" viewBox="0 0 150 313.553"><defs><style>.a{isolation:isolate;}.b{fill:#010d1b;}.c{fill:#042338;}.d{fill:#f9c533;}.e{fill:#f0a96b;}.f{fill:#2f3a8c;}.g{fill:#f6a76e;}.h{fill:#221624;}.i{fill:#f6aa6c;}.j{fill:#0f2a3f;}.k{fill:#dedede;}.l{fill:#e31837;}</style></defs><g class="a" transform="translate(-1451 -436.24)"><path class="b" d="M3406.511,2866.114s-3.113,3.336-7.116,3.558-6.178.887-6.178,1.822,0,1.479,1.09,1.479h18.686s.078-4.126-.623-5.294a6.933,6.933,0,0,0-2.258-2.024,55.3,55.3,0,0,1,.778-13.469c1.324-5.917,7.163-45.7,7.942-52.165s4.134-42.2,4.134-42.2l-34.246-6.226,2.224,6.226Z" transform="translate(-1885.73 -2123.619)"/><path class="c" d="M3452.914,2748.536s3.336,2.669,4.448,19.791,0,26.685,0,26.685a151.023,151.023,0,0,1,4.67,29.354c1.112,17.122,2.669,40.249,2.669,40.249s3.454-.253,3.558,2.891,1.779,4.67-3.558,4.67c-1.4,0-4.2.552-5.2-.269a29.379,29.379,0,0,1,0-5.33l1.422-1.961s-21.125-53.147-22.9-60.708-9.562-24.906-14.454-31.132-6.671-19.346-6.671-19.346l23.794-8.005Z" transform="translate(-1890.549 -2122.563)"/><path class="d" d="M3410.505,2654.212l-11.341,4.67a104.962,104.962,0,0,0-4.892,17.79c-1.334,8.45-9.562,59.151-8.006,60.263s12.675,5.559,29.131,4.892,35.8-3.78,36.024-7.783-11.563-70.937-15.121-73.605-15.344-6.227-15.344-6.227Z" transform="translate(-1885.276 -2106.96)"/><path class="e" d="M3476.6,2633.786s3.816-3.026,3.816-4.342-3.816-26.316-3.816-29.343-1.447-11.843-1.447-11.843-7.369-4.342-7.763-4.342-1.184-1.71-1.184-2.237-3.816-5,1.184-5.527,12.5-.921,13.026-.526,1.184,6.053,1.184,6.053-3.158,3.553-2.237,6.579,10.526,36.712,10.658,39.475-3.684,10.658-4.079,11.184S3476.6,2633.786,3476.6,2633.786Z" transform="translate(-1898.746 -2093.489)"/><path class="f" d="M3467.326,2638.921c-3.48,2.643-19.346,16.233-20.236,19.346s-1.112,17.345,2.669,22.682,5.114,6.449,5.114,6.449l24.662-29.131,5.567-8.2S3477.409,2640.147,3467.326,2638.921Z" transform="translate(-1895.622 -2104.344)"/><path class="g" d="M3369.729,2581.97s-5.526-6.842.79-6.316,11.71,6.316,11.71,6.316v2.105s1.579-1.316,2.632-.526,1.974,1.448-1.579,3.026-6.974,1.71-7.5,3.026-3.421,21.053-3.948,25.132-3.553,13.816-3.553,13.816l5.132,4.868-3.684,10.527s-10.79-9.737-11.185-12.632,4.737-17.9,5.658-21.053,9.737-21.842,8.684-23.685A55.143,55.143,0,0,0,3369.729,2581.97Z" transform="translate(-1880.564 -2093.516)"/><path class="f" d="M3372.508,2641.852c4.959,1.114,21.559,14.677,21.559,14.677s-6.073,26.215-5.769,27.531-29.96-25.608-29.555-27.531S3367.549,2640.738,3372.508,2641.852Z" transform="translate(-1880.601 -2104.834)"/><path class="h" d="M3410.862,2655.97c-1.721,3.138-6.478,14.777,4.859,14.676s16.7-13.462,14.879-14.271S3412.583,2652.832,3410.862,2655.97Z" transform="translate(-1889.095 -2107.009)"/><path class="i" d="M3417.823,2624.77c-.3-.1-7.389,1.923-7.288,5.162a76.747,76.747,0,0,1-.506,7.793c0,.911-1.923,7.49,1.215,8s4.96.81,4.96.81l-1.113,3.745-2.733,1.822s-4.96,10.425,3.846,10.223,11.842-8,11.842-9.717-2.632-3.137-2.632-3.137l-.607-2.429s3.543-4.353,4.251-5.264,4.049-4.656,4.049-5.364-7.187-8.1-8.3-8.7S3417.823,2624.77,3417.823,2624.77Z" transform="translate(-1889.275 -2101.923)"/><path class="j" d="M3409.928,2632.163c.506.911,1.316-.405,1.316-.405s-.1-4.656,1.62-4.352,1.518,3.542,4.352,4.352l6.376,1.822s-.1,2.227,1.215,1.619,3.037-.81,3.138.607.1,3.138-1.113,3.543a2.59,2.59,0,0,0-2.024,2.024c-.2,1.012-.911,4.858,0,4.757s6.276-.506,8.7-3.441,5.567-11.336,1.417-15.284-7.592-3.137-10.122-6.174-7.389-7.592-11.032-5.263S3407.2,2628.722,3409.928,2632.163Z" transform="translate(-1889.174 -2100.308)"/><rect class="k" width="150" height="52" rx="8" transform="translate(1451 436.24)"/><path class="l" d="M12,17.27,18.18,21l-1.64-7.03L22,9.24l-7.19-.61L12,2,9.19,8.63,2,9.24l5.46,4.73L5.82,21Z" transform="translate(1461 449.24)"/><path class="l" d="M12,17.27,18.18,21l-1.64-7.03L22,9.24l-7.19-.61L12,2,9.19,8.63,2,9.24l5.46,4.73L5.82,21Z" transform="translate(1486 449.24)"/><path class="l" d="M12,17.27,18.18,21l-1.64-7.03L22,9.24l-7.19-.61L12,2,9.19,8.63,2,9.24l5.46,4.73L5.82,21Z" transform="translate(1511 449.24)"/><path class="l" d="M12,17.27,18.18,21l-1.64-7.03L22,9.24l-7.19-.61L12,2,9.19,8.63,2,9.24l5.46,4.73L5.82,21Z" transform="translate(1536 449.24)"/><path class="l" d="M22,9.24l-7.19-.62L12,2,9.19,8.63,2,9.24l5.46,4.73L5.82,21,12,17.27,18.18,21l-1.63-7.03ZM12,15.4V6.1l1.71,4.04,4.38.38L14.77,13.4l1,4.28Z" transform="translate(1561 449.24)"/></g></svg>