<svg xmlns="http://www.w3.org/2000/svg" xmlns:xlink="http://www.w3.org/1999/xlink" width="584.909" height="358.675" viewBox="0 0 584.909 358.675"><defs><style>.a{fill:url(#a);}.b{fill:#fff;}.c,.d,.e,.f,.g,.h,.i,.j,.k,.l,.m,.n,.o,.p,.q,.r{fill:#10dc6b;}.c,.t{opacity:0.846;}.d,.u{opacity:0.955;}.e,.v{opacity:0.946;}.f,.w{opacity:0.819;}.g,.x{opacity:0.981;}.h,.y{opacity:0.894;}.i,.z{opacity:0.805;}.aa,.j{opacity:0.835;}.ab,.k{opacity:0.942;}.ac,.l{opacity:0.9;}.ad,.m{opacity:0.932;}.ae,.n{opacity:0.987;}.af,.o{opacity:0.899;}.ag,.p{opacity:0.824;}.ah,.q{opacity:0.9;}.ai,.r,.s{opacity:0.5;}.aa,.ab,.ac,.ad,.ae,.af,.ag,.ah,.ai,.t,.u,.v,.w,.x,.y,.z{fill:#0a8240;}</style><radialGradient id="a" cx="0.5" cy="0.5" r="0.5" gradientUnits="objectBoundingBox"><stop offset="0" stop-color="#61f5a3"/><stop offset="1" stop-color="#10dc6b"/></radialGradient></defs><g transform="translate(-649.138 -254.289)"><circle class="a" cx="60" cy="60" r="60" transform="translate(901 337)"/><path class="b" d="M1,49.812h9.762V20.525H1ZM54.693,22.965a4.9,4.9,0,0,0-4.881-4.881h-15.4L36.73,6.931,36.8,6.15A3.674,3.674,0,0,0,35.73,3.563L33.143,1,17.084,17.084a4.772,4.772,0,0,0-1.44,3.441V44.931a4.9,4.9,0,0,0,4.881,4.881H42.49a4.848,4.848,0,0,0,4.491-2.978l7.371-17.206a4.822,4.822,0,0,0,.342-1.782V23.185l-.024-.024Z" transform="translate(933 372)"/><g transform="translate(734.023 151.793)"><ellipse class="c" cx="3.21" cy="3.343" rx="3.21" ry="3.343" transform="translate(150.501 354.392)"/><ellipse class="c" cx="1.87" cy="2.004" rx="1.87" ry="2.004" transform="translate(262.985 424.025)"/><ellipse class="d" cx="2.184" cy="2.274" rx="2.184" ry="2.274" transform="translate(345.215 326.723)"/><ellipse class="e" cx="3.358" cy="3.497" rx="3.358" ry="3.497" transform="translate(226.398 339.809)"/><ellipse class="f" cx="1.781" cy="1.855" rx="1.781" ry="1.855" transform="translate(168.452 265.16)"/><ellipse class="g" cx="1.158" cy="1.206" rx="1.158" ry="1.206" transform="translate(118.835 327.21)"/><ellipse class="g" cx="1.158" cy="1.206" rx="1.158" ry="1.206" transform="translate(398.705 450.407)"/><ellipse class="h" cx="1.309" cy="1.363" rx="1.309" ry="1.363" transform="translate(314.286 197.915)"/><ellipse class="i" cx="3.267" cy="3.402" rx="3.267" ry="3.402" transform="translate(209.662 122.605)"/><ellipse class="j" cx="3.271" cy="3.407" rx="3.271" ry="3.407" transform="translate(269.115 172.982)"/><ellipse class="j" cx="3.271" cy="3.407" rx="3.271" ry="3.407" transform="translate(67.104 273.716)"/><ellipse class="j" cx="3.271" cy="3.407" rx="3.271" ry="3.407" transform="translate(400.537 329.958)"/><ellipse class="k" cx="2.684" cy="2.796" rx="2.684" ry="2.796" transform="translate(61.611 347.042)"/><ellipse class="k" cx="2.684" cy="2.796" rx="2.684" ry="2.796" transform="translate(349.516 387.214)"/><ellipse class="l" cx="3.756" cy="3.911" rx="3.756" ry="3.911" transform="translate(194.04 322.847)"/><ellipse class="m" cx="1.508" cy="1.571" rx="1.508" ry="1.571" transform="translate(209.05 158.269)"/><ellipse class="n" cx="4.2" cy="4.374" rx="4.2" ry="4.374" transform="translate(153.778 154.205)"/><ellipse class="o" cx="1.527" cy="1.59" rx="1.527" ry="1.59" transform="translate(104.275 228.454)"/><ellipse class="p" cx="4.286" cy="4.464" rx="4.286" ry="4.464" transform="translate(80.623 256.937)"/><ellipse class="q" cx="2.39" cy="2.49" rx="2.39" ry="2.49" transform="translate(99.231 144.099)"/><ellipse class="r" cx="2.992" cy="3.116" rx="2.992" ry="3.116" transform="translate(58.75 123.02)"/><circle class="j" cx="1.331" cy="1.331" r="1.331" transform="translate(67.104 184.459)"/></g><g class="s" transform="translate(1234.42 340.806) rotate(118)"><ellipse class="t" cx="4.154" cy="4.326" rx="4.154" ry="4.326" transform="translate(118.741 299.969)"/><ellipse class="t" cx="2.421" cy="2.593" rx="2.421" ry="2.593" transform="translate(264.312 390.085)"/><ellipse class="u" cx="2.826" cy="2.943" rx="2.826" ry="2.943" transform="translate(370.731 264.16)"/><ellipse class="v" cx="2" cy="2.083" rx="2" ry="2.083" transform="translate(257.536 293.5)"/><ellipse class="w" cx="2.305" cy="2.4" rx="2.305" ry="2.4" transform="translate(141.972 184.488)"/><ellipse class="x" cx="1.499" cy="1.561" rx="1.499" ry="1.561" transform="translate(77.76 264.791)"/><ellipse class="x" cx="1.499" cy="1.561" rx="1.499" ry="1.561" transform="translate(439.956 424.227)"/><ellipse class="y" cx="1.694" cy="1.764" rx="1.694" ry="1.764" transform="translate(330.704 97.463)"/><ellipse class="z" cx="4.228" cy="4.403" rx="4.228" ry="4.403" transform="translate(195.304 0)"/><ellipse class="aa" cx="4.233" cy="4.409" rx="4.233" ry="4.409" transform="translate(272.246 65.195)"/><ellipse class="aa" cx="4.233" cy="4.409" rx="4.233" ry="4.409" transform="translate(10.811 195.562)"/><ellipse class="aa" cx="4.233" cy="4.409" rx="4.233" ry="4.409" transform="translate(442.327 268.347)"/><ellipse class="ab" cx="3.474" cy="3.618" rx="3.474" ry="3.618" transform="translate(97.467 104.693)"/><ellipse class="ab" cx="3.474" cy="3.618" rx="3.474" ry="3.618" transform="translate(376.297 342.446)"/><ellipse class="ac" cx="4.86" cy="5.062" rx="4.86" ry="5.062" transform="translate(203.255 312.121)"/><ellipse class="ad" cx="1.952" cy="2.033" rx="1.952" ry="2.033" transform="translate(194.512 46.155)"/><ellipse class="ae" cx="5.435" cy="5.66" rx="5.435" ry="5.66" transform="translate(160.54 111.531)"/><ellipse class="af" cx="1.976" cy="2.057" rx="1.976" ry="2.057" transform="translate(58.917 136.985)"/><ellipse class="ag" cx="5.547" cy="5.777" rx="5.547" ry="5.777" transform="translate(28.306 173.846)"/><ellipse class="ah" cx="3.094" cy="3.222" rx="3.094" ry="3.222" transform="translate(52.389 27.816)"/><ellipse class="ai" cx="3.872" cy="4.033" rx="3.872" ry="4.033" transform="translate(0 0.537)"/><circle class="aa" cx="1.723" cy="1.723" r="1.723" transform="translate(10.811 80.048)"/></g></g></svg>