<svg xmlns="http://www.w3.org/2000/svg" xmlns:xlink="http://www.w3.org/1999/xlink" width="272.122" height="332.047" viewBox="0 0 272.122 332.047"><defs><style>.a{fill:none;}.b{fill:#fcb71b;}.b,.c,.d,.g{mix-blend-mode:luminosity;isolation:isolate;}.c{fill:#ffcd52;}.d{fill:#fec133;}.e{fill:#f8f8f2;stroke:#e1e1e1;}.f{clip-path:url(#c);}.h{fill:#e8c567;}.i{fill:#fff;}.j{fill:#c4c28f;}.k{fill:#c4c4c4;}.l{fill:#f5aa71;}.m{fill:#000007;}.n{fill:#f9ac71;}.o{fill:#f2ad6a;}.p{fill:#042035;}.q{fill:#2f3a8c;}.r{fill:#febe28;}.s{stroke:none;}.t{filter:url(#a);}</style><filter id="a" x="64.802" y="0" width="196" height="255" filterUnits="userSpaceOnUse"><feOffset dy="3" input="SourceAlpha"/><feGaussianBlur stdDeviation="9.5" result="b"/><feFlood flood-color="#5d591f" flood-opacity="0.161"/><feComposite operator="in" in2="b"/><feComposite in="SourceGraphic"/></filter><clipPath id="c"><rect class="a" width="117" height="176"/></clipPath></defs><g transform="translate(-228.698 -482.5)"><g transform="translate(0 67)"><path class="b" d="M2987.17,2921.433s-24.651-52.3-75.323-46.135-32.868,46.135-32.868,46.135Z" transform="translate(-2540.171 -2173.886)"/><path class="c" d="M2939.163,2901.3s-14.011-29.724-42.811-26.222-18.681,26.222-18.681,26.222Z" transform="translate(-2571.398 -2153.755)"/><path class="d" d="M2981.493,2905.051s-40.476-35.562-23.351-56.968,55.265,25.3,55.265,25.3,11.287-32.692,35.027-23.741,11.676,55.411,11.676,55.411Z" transform="translate(-2562.355 -2157.504)"/></g><g class="t" transform="matrix(1, 0, 0, 1, 228.7, 482.5)"><g class="e" transform="translate(93.3 25.5)"><rect class="s" width="139" height="198" rx="10"/><rect class="a" x="0.5" y="0.5" width="138" height="197" rx="9.5"/></g></g><g class="f" transform="translate(332 520)"><g transform="translate(-332 -453)"><g class="g" transform="translate(331.732 453.119)"><circle class="h" cx="16" cy="16" r="16" transform="translate(0.268 -0.119)"/><g transform="translate(8.693 8.693)"><path class="i" d="M0,14.482v-1.81c0-1.991,3.258-3.62,7.241-3.62s7.241,1.629,7.241,3.62v1.81ZM3.62,3.62a3.62,3.62,0,1,1,3.62,3.62A3.62,3.62,0,0,1,3.62,3.62Z" transform="translate(0 0)"/></g></g><rect class="j" width="31" height="5" transform="translate(373 456)"/><rect class="k" width="76" height="2" transform="translate(373 468)"/><rect class="k" width="76" height="2" transform="translate(373 473)"/><rect class="k" width="76" height="2" transform="translate(373 478)"/><rect class="j" width="16" height="5" transform="translate(410 456)"/></g><g transform="translate(-332 -401)"><g class="g" transform="translate(331.732 453.119)"><circle class="h" cx="16" cy="16" r="16" transform="translate(0.268 -0.119)"/><g transform="translate(8.693 8.693)"><path class="i" d="M0,14.482v-1.81c0-1.991,3.258-3.62,7.241-3.62s7.241,1.629,7.241,3.62v1.81ZM3.62,3.62a3.62,3.62,0,1,1,3.62,3.62A3.62,3.62,0,0,1,3.62,3.62Z" transform="translate(0 0)"/></g></g><rect class="j" width="31" height="5" transform="translate(373 456)"/><rect class="k" width="76" height="2" transform="translate(373 468)"/><rect class="k" width="76" height="2" transform="translate(373 473)"/><rect class="k" width="76" height="2" transform="translate(373 478)"/><rect class="j" width="16" height="5" transform="translate(410 456)"/></g><g transform="translate(-332 -349)"><g class="g" transform="translate(331.732 453.119)"><circle class="h" cx="16" cy="16" r="16" transform="translate(0.268 -0.119)"/><g transform="translate(8.693 8.693)"><path class="i" d="M0,14.482v-1.81c0-1.991,3.258-3.62,7.241-3.62s7.241,1.629,7.241,3.62v1.81ZM3.62,3.62a3.62,3.62,0,1,1,3.62,3.62A3.62,3.62,0,0,1,3.62,3.62Z" transform="translate(0 0)"/></g></g><rect class="j" width="31" height="5" transform="translate(373 456)"/><rect class="k" width="76" height="2" transform="translate(373 468)"/><rect class="k" width="76" height="2" transform="translate(373 473)"/><rect class="k" width="76" height="2" transform="translate(373 478)"/><rect class="j" width="16" height="5" transform="translate(410 456)"/></g><g transform="translate(-332 -297)"><g class="g" transform="translate(331.732 453.119)"><circle class="h" cx="16" cy="16" r="16" transform="translate(0.268 -0.119)"/><g transform="translate(8.693 8.693)"><path class="i" d="M0,14.482v-1.81c0-1.991,3.258-3.62,7.241-3.62s7.241,1.629,7.241,3.62v1.81ZM3.62,3.62a3.62,3.62,0,1,1,3.62,3.62A3.62,3.62,0,0,1,3.62,3.62Z" transform="translate(0 0)"/></g></g><rect class="j" width="31" height="5" transform="translate(373 456)"/><rect class="k" width="76" height="2" transform="translate(373 468)"/><rect class="k" width="76" height="2" transform="translate(373 473)"/><rect class="k" width="76" height="2" transform="translate(373 478)"/><rect class="j" width="16" height="5" transform="translate(410 456)"/></g></g><g transform="translate(-2571.481 -2084)"><path class="l" d="M2861.044,2806.854s-.268,31.119-1.878,44-5.365,44.264-5.365,44.264h-4.561s2.414-15.559,0-24.412-10.462-44-8.853-54.458S2861.044,2806.854,2861.044,2806.854Z"/><path class="m" d="M2856.752,2891.09c-1.515,1.356-1.878,1.878-3.756,1.878s-4.292-1.878-4.292-1.878-4.829,6.975,0,6.707,19.852,0,19.852,0S2869.092,2893.236,2856.752,2891.09Z"/><path class="n" d="M2807.494,2806.823s-1.651,10.164,1.857,33.275,8.461,55.3,8.461,55.3h3.3s6.81-38.176,7.016-55.3,4.127-28.478,4.127-28.478Z"/><path class="m" d="M2816.588,2890.227c3.193.845.564,3.569,2.818,3.194s.845-3.382,2.818-3.194,3.569,2.912,3.194,5.823-1.878,2.254-6.011,2.442-4.978,0-5.636-2.442S2813.4,2889.382,2816.588,2890.227Z"/><path class="o" d="M2887.576,2667.091s-.158,10.794-4.127,12.064-6.826,3.651-9.207-1.746-4.286-14.286-2.7-16.032,2.064-3.333,5.08-2.7S2887.576,2667.091,2887.576,2667.091Z"/><path class="o" d="M2870.961,2686.906l27.908,41.884s7.78-13.413,13.682-18.51a24.806,24.806,0,0,0,7.511-11.267s-1.342-5.365,0-8.048,9.121-2.683,11-2.683,6.707,2.146,5.1,2.683-5.9,1.341-5.1,2.951,1.073,7.511-2.415,7.511-6.17,3.488-6.17,3.488-15.828,37.825-23.607,38.094-9.658-4.292-12.877-8.316-20.12-38.362-20.12-38.362Z"/><path class="p" d="M2801.262,2751.323c-2.455,1.61.041,12.877,0,24.144s-2.374,31.924,0,34.07,4.52,10.194,29.2,9.389,32.192-4.024,33.533-6.438,5.365-42.386,3.756-48.556S2803.717,2749.714,2801.262,2751.323Z"/><path class="q" d="M2874.189,2723.156c-1.073,3.219-4.292,10.462-4.292,18.242v23.071s-2.146,7.243-34.338,2.415-33.533-13.95-33.533-13.95-2.414-1.073,1.341-7.78,6.438-25.485,17.169-38.63,39.971-26.826,44.264-25.753,15.023,4.56,17.706,7.511S2875.262,2719.937,2874.189,2723.156Z"/><path class="r" d="M2887.576,2741.4l12.634-15.023-12.634-30.046s-8.827-16.1-19.021-2.683S2887.576,2741.4,2887.576,2741.4Z"/><path class="p" d="M2844.083,2667.885c3.016-.952,4.286-1.27,7.778-6.191s13.016-18.1,22.7-16.826,13.651,5.4,14.762,9.048,0,12.7-1.428,13.334-5.8-5.622-8.337-1.336c-1.222,2.062.274,1.342,0,5.113-.252,3.449-5,11.975-5,15.271,0,6.349.635,25.239-7.143,33.176s-29.525,16.032-49.367,1.587-11.747-40.8-1.9-46.192S2830.114,2667.568,2844.083,2667.885Z"/></g></g></svg>