<svg xmlns="http://www.w3.org/2000/svg" xmlns:xlink="http://www.w3.org/1999/xlink" width="748" height="686" viewBox="0 0 748 686"><defs><style>.a{fill:none;}.b{fill:#f6f6f6;}.c{fill:#fcb71b;}.c,.d,.e,.h{mix-blend-mode:luminosity;}.c,.d,.e,.h,.t{isolation:isolate;}.d{fill:#ffcd52;}.e{fill:#fec133;}.f{fill:#f8f8f2;stroke:#e1e1e1;}.g{clip-path:url(#c);}.i{fill:#e8c567;}.j{fill:#fff;}.k{fill:#c4c28f;}.l{fill:#c4c4c4;}.m{fill:#f5aa71;}.n{fill:#000007;}.o{fill:#f9ac71;}.p{fill:#f2ad6a;}.q{fill:#042035;}.r{fill:#2f3a8c;}.s{fill:#febe28;}.u{fill:#010d1b;}.v{fill:#042338;}.w{fill:#f9c533;}.x{fill:#f0a96b;}.y{fill:#f6a76e;}.z{fill:#221624;}.aa{fill:#f6aa6c;}.ab{fill:#0f2a3f;}.ac{fill:#dedede;}.ad,.ae{fill:#203442;}.ad{font-size:43px;font-family:Calibri-Light, Calibri;font-weight:300;}.ae{font-size:81px;font-family:Calibri-Bold, Calibri;font-weight:700;}.af{fill:#d9d9d9;}.ag{stroke:none;}.ah{filter:url(#a);}</style><filter id="a" x="90.5" y="263.5" width="196" height="255" filterUnits="userSpaceOnUse"><feOffset dy="3" input="SourceAlpha"/><feGaussianBlur stdDeviation="9.5" result="b"/><feFlood flood-color="#5d591f" flood-opacity="0.161"/><feComposite operator="in" in2="b"/><feComposite in="SourceGraphic"/></filter><clipPath id="c"><rect class="a" width="117" height="176"/></clipPath></defs><g transform="translate(-204 -116)"><path class="b" d="M271.835,591.571c61.364.816,163.1-125.057,190.2-185.732s70.974-182.422,56.3-240.4S410.677,44.5,298.164,15.777,36.952-4.4,10.26,57.575,10.315,306.467,74.7,412.937,210.471,590.755,271.835,591.571Z" transform="translate(937.581 136.646) rotate(92)"/><g transform="translate(710 716.384)"><path class="c" d="M2875.947,2932.3s30.395-64.483,92.872-56.884,40.526,56.884,40.526,56.884Z" transform="translate(-2809.586 -2854.137)"/><path class="d" d="M2875.947,2907.478s17.275-36.65,52.785-32.331,23.034,32.331,23.034,32.331Z" transform="translate(-2711.891 -2829.315)"/></g><g transform="translate(1 -103)"><g transform="translate(0 67)"><path class="c" d="M2987.17,2921.433s-24.651-52.3-75.323-46.135-32.868,46.135-32.868,46.135Z" transform="translate(-2540.171 -2173.886)"/><path class="d" d="M2939.163,2901.3s-14.011-29.724-42.811-26.222-18.681,26.222-18.681,26.222Z" transform="translate(-2571.398 -2153.755)"/><path class="e" d="M2981.493,2905.051s-40.476-35.562-23.351-56.968,55.265,25.3,55.265,25.3,11.287-32.692,35.027-23.741,11.676,55.411,11.676,55.411Z" transform="translate(-2562.355 -2157.504)"/></g><g class="ah" transform="matrix(1, 0, 0, 1, 203, 219)"><g class="f" transform="translate(119 289)"><rect class="ag" width="139" height="198" rx="10"/><rect class="a" x="0.5" y="0.5" width="138" height="197" rx="9.5"/></g></g><g class="g" transform="translate(332 520)"><g transform="translate(-332 -453)"><g class="h" transform="translate(331.732 453.119)"><circle class="i" cx="16" cy="16" r="16" transform="translate(0.268 -0.119)"/><g transform="translate(8.693 8.693)"><path class="j" d="M0,14.482v-1.81c0-1.991,3.258-3.62,7.241-3.62s7.241,1.629,7.241,3.62v1.81ZM3.62,3.62a3.62,3.62,0,1,1,3.62,3.62A3.62,3.62,0,0,1,3.62,3.62Z" transform="translate(0 0)"/></g></g><rect class="k" width="31" height="5" transform="translate(373 456)"/><rect class="l" width="76" height="2" transform="translate(373 468)"/><rect class="l" width="76" height="2" transform="translate(373 473)"/><rect class="l" width="76" height="2" transform="translate(373 478)"/><rect class="k" width="16" height="5" transform="translate(410 456)"/></g><g transform="translate(-332 -401)"><g class="h" transform="translate(331.732 453.119)"><circle class="i" cx="16" cy="16" r="16" transform="translate(0.268 -0.119)"/><g transform="translate(8.693 8.693)"><path class="j" d="M0,14.482v-1.81c0-1.991,3.258-3.62,7.241-3.62s7.241,1.629,7.241,3.62v1.81ZM3.62,3.62a3.62,3.62,0,1,1,3.62,3.62A3.62,3.62,0,0,1,3.62,3.62Z" transform="translate(0 0)"/></g></g><rect class="k" width="31" height="5" transform="translate(373 456)"/><rect class="l" width="76" height="2" transform="translate(373 468)"/><rect class="l" width="76" height="2" transform="translate(373 473)"/><rect class="l" width="76" height="2" transform="translate(373 478)"/><rect class="k" width="16" height="5" transform="translate(410 456)"/></g><g transform="translate(-332 -349)"><g class="h" transform="translate(331.732 453.119)"><circle class="i" cx="16" cy="16" r="16" transform="translate(0.268 -0.119)"/><g transform="translate(8.693 8.693)"><path class="j" d="M0,14.482v-1.81c0-1.991,3.258-3.62,7.241-3.62s7.241,1.629,7.241,3.62v1.81ZM3.62,3.62a3.62,3.62,0,1,1,3.62,3.62A3.62,3.62,0,0,1,3.62,3.62Z" transform="translate(0 0)"/></g></g><rect class="k" width="31" height="5" transform="translate(373 456)"/><rect class="l" width="76" height="2" transform="translate(373 468)"/><rect class="l" width="76" height="2" transform="translate(373 473)"/><rect class="l" width="76" height="2" transform="translate(373 478)"/><rect class="k" width="16" height="5" transform="translate(410 456)"/></g><g transform="translate(-332 -297)"><g class="h" transform="translate(331.732 453.119)"><circle class="i" cx="16" cy="16" r="16" transform="translate(0.268 -0.119)"/><g transform="translate(8.693 8.693)"><path class="j" d="M0,14.482v-1.81c0-1.991,3.258-3.62,7.241-3.62s7.241,1.629,7.241,3.62v1.81ZM3.62,3.62a3.62,3.62,0,1,1,3.62,3.62A3.62,3.62,0,0,1,3.62,3.62Z" transform="translate(0 0)"/></g></g><rect class="k" width="31" height="5" transform="translate(373 456)"/><rect class="l" width="76" height="2" transform="translate(373 468)"/><rect class="l" width="76" height="2" transform="translate(373 473)"/><rect class="l" width="76" height="2" transform="translate(373 478)"/><rect class="k" width="16" height="5" transform="translate(410 456)"/></g></g><g transform="translate(-2571.481 -2084)"><path class="m" d="M2861.044,2806.854s-.268,31.119-1.878,44-5.365,44.264-5.365,44.264h-4.561s2.414-15.559,0-24.412-10.462-44-8.853-54.458S2861.044,2806.854,2861.044,2806.854Z"/><path class="n" d="M2856.752,2891.09c-1.515,1.356-1.878,1.878-3.756,1.878s-4.292-1.878-4.292-1.878-4.829,6.975,0,6.707,19.852,0,19.852,0S2869.092,2893.236,2856.752,2891.09Z"/><path class="o" d="M2807.494,2806.823s-1.651,10.164,1.857,33.275,8.461,55.3,8.461,55.3h3.3s6.81-38.176,7.016-55.3,4.127-28.478,4.127-28.478Z"/><path class="n" d="M2816.588,2890.227c3.193.845.564,3.569,2.818,3.194s.845-3.382,2.818-3.194,3.569,2.912,3.194,5.823-1.878,2.254-6.011,2.442-4.978,0-5.636-2.442S2813.4,2889.382,2816.588,2890.227Z"/><path class="p" d="M2887.576,2667.091s-.158,10.794-4.127,12.064-6.826,3.651-9.207-1.746-4.286-14.286-2.7-16.032,2.064-3.333,5.08-2.7S2887.576,2667.091,2887.576,2667.091Z"/><path class="p" d="M2870.961,2686.906l27.908,41.884s7.78-13.413,13.682-18.51a24.806,24.806,0,0,0,7.511-11.267s-1.342-5.365,0-8.048,9.121-2.683,11-2.683,6.707,2.146,5.1,2.683-5.9,1.341-5.1,2.951,1.073,7.511-2.415,7.511-6.17,3.488-6.17,3.488-15.828,37.825-23.607,38.094-9.658-4.292-12.877-8.316-20.12-38.362-20.12-38.362Z"/><path class="q" d="M2801.262,2751.323c-2.455,1.61.041,12.877,0,24.144s-2.374,31.924,0,34.07,4.52,10.194,29.2,9.389,32.192-4.024,33.533-6.438,5.365-42.386,3.756-48.556S2803.717,2749.714,2801.262,2751.323Z"/><path class="r" d="M2874.189,2723.156c-1.073,3.219-4.292,10.462-4.292,18.242v23.071s-2.146,7.243-34.338,2.415-33.533-13.95-33.533-13.95-2.414-1.073,1.341-7.78,6.438-25.485,17.169-38.63,39.971-26.826,44.264-25.753,15.023,4.56,17.706,7.511S2875.262,2719.937,2874.189,2723.156Z"/><path class="s" d="M2887.576,2741.4l12.634-15.023-12.634-30.046s-8.827-16.1-19.021-2.683S2887.576,2741.4,2887.576,2741.4Z"/><path class="q" d="M2844.083,2667.885c3.016-.952,4.286-1.27,7.778-6.191s13.016-18.1,22.7-16.826,13.651,5.4,14.762,9.048,0,12.7-1.428,13.334-5.8-5.622-8.337-1.336c-1.222,2.062.274,1.342,0,5.113-.252,3.449-5,11.975-5,15.271,0,6.349.635,25.239-7.143,33.176s-29.525,16.032-49.367,1.587-11.747-40.8-1.9-46.192S2830.114,2667.568,2844.083,2667.885Z"/></g></g><g class="t" transform="translate(-786.843 -49.638)"><path class="u" d="M3412.056,2901.815s-4.083,4.375-9.334,4.667-8.1,1.164-8.1,2.389,0,1.94,1.43,1.94h24.511s.1-5.412-.817-6.944a9.1,9.1,0,0,0-2.962-2.656s-.715-9.906,1.021-17.668,9.4-59.95,10.418-68.427,5.423-55.356,5.423-55.356l-44.921-8.167,2.917,8.167Z" transform="translate(-1869.522 -2063.848)"/><path class="v" d="M3464.144,2749.506s4.376,3.5,5.834,25.961,0,35,0,35a198.1,198.1,0,0,1,6.125,38.5c1.458,22.46,3.5,52.8,3.5,52.8s4.531-.331,4.667,3.792,2.333,6.126-4.667,6.126c-1.834,0-5.509.724-6.824-.353a38.571,38.571,0,0,1,0-6.991l1.865-2.573s-27.71-69.715-30.044-79.633-12.543-32.669-18.96-40.837-8.751-25.377-8.751-25.377l31.211-10.5Z" transform="translate(-1867.062 -2064.387)"/><path class="w" d="M3418.123,2654.212l-14.877,6.125a137.684,137.684,0,0,0-6.417,23.336c-1.75,11.084-12.543,77.591-10.5,79.049s16.626,7.292,38.212,6.417,46.962-4.959,47.254-10.209-15.168-93.051-19.835-96.551-20.127-8.167-20.127-8.167Z" transform="translate(-1869.754 -2072.353)"/><path class="x" d="M3480.272,2651.966s5.005-3.969,5.005-5.7-5.005-34.52-5.005-38.49-1.9-15.534-1.9-15.534-9.666-5.7-10.183-5.7-1.554-2.244-1.554-2.934-5-6.559,1.554-7.25,16.4-1.208,17.087-.69,1.554,7.94,1.554,7.94-4.143,4.66-2.935,8.63,13.808,48.156,13.981,51.78-4.833,13.98-5.351,14.671S3480.272,2651.966,3480.272,2651.966Z" transform="translate(-1862.877 -2079.23)"/><path class="r" d="M3473.8,2638.921c-4.565,3.466-25.377,21.293-26.545,25.378s-1.458,22.752,3.5,29.753,6.709,8.459,6.709,8.459l32.349-38.212,7.3-10.759S3487.031,2640.529,3473.8,2638.921Z" transform="translate(-1864.472 -2073.688)"/><path class="y" d="M3373.222,2583.948s-7.249-8.975,1.036-8.285,15.361,8.285,15.361,8.285v2.762s2.072-1.726,3.452-.69,2.589,1.9-2.071,3.97-9.148,2.243-9.838,3.97-4.488,27.616-5.178,32.967-4.66,18.123-4.66,18.123l6.731,6.386-4.833,13.808s-14.154-12.772-14.671-16.569,6.213-23.474,7.422-27.616,12.772-28.651,11.391-31.068A72.286,72.286,0,0,0,3373.222,2583.948Z" transform="translate(-1872.159 -2079.217)"/><path class="r" d="M3376.8,2641.871c6.506,1.461,28.28,19.252,28.28,19.252s-7.966,34.387-7.568,36.113-39.3-33.591-38.769-36.113S3370.295,2640.41,3376.8,2641.871Z" transform="translate(-1872.141 -2073.438)"/><path class="z" d="M3411.631,2656.428c-2.257,4.116-8.5,19.384,6.373,19.252s21.907-17.658,19.517-18.721S3413.888,2652.313,3411.631,2656.428Z" transform="translate(-1867.804 -2072.328)"/><path class="aa" d="M3420.435,2624.771c-.4-.133-9.692,2.523-9.56,6.771s-.664,9.029-.664,10.223-2.523,9.824,1.593,10.489,6.506,1.062,6.506,1.062l-1.46,4.913-3.585,2.39s-6.506,13.675,5.045,13.41,15.534-10.489,15.534-12.746-3.452-4.115-3.452-4.115l-.8-3.187s4.647-5.709,5.576-6.9,5.311-6.107,5.311-7.036-9.427-10.622-10.888-11.418S3420.435,2624.771,3420.435,2624.771Z" transform="translate(-1867.712 -2074.925)"/><path class="ab" d="M3410.263,2637.411c.664,1.195,1.726-.531,1.726-.531s-.132-6.108,2.125-5.709,1.991,4.647,5.709,5.709l8.364,2.39s-.133,2.92,1.594,2.124,3.983-1.062,4.116.8.132,4.116-1.461,4.647a3.4,3.4,0,0,0-2.655,2.655c-.266,1.328-1.2,6.373,0,6.24s8.231-.664,11.417-4.514,7.3-14.87,1.859-20.048-9.958-4.115-13.277-8.1-9.692-9.958-14.472-6.9S3406.677,2632.9,3410.263,2637.411Z" transform="translate(-1867.764 -2075.749)"/><rect class="ac" width="377" height="68" rx="8" transform="translate(1270.843 436.638)"/></g><text class="ad" transform="translate(515 434)"><tspan x="0" y="0">ANNUAL SURVEY</tspan></text><text class="ae" transform="translate(325 374)"><tspan x="0" y="0">GROUP HR </tspan></text><rect class="af" width="347" height="8" rx="4" transform="translate(605 794)"/><rect class="af" width="347" height="8" rx="4" transform="translate(204 708)"/></g></svg>